<svg
  width="100mm"
  height="100mm"
  viewBox="0 0 130.7191 134.00444"
  xmlns="http://www.w3.org/2000/svg"
>
  <style>
    .stroke {
      stroke: #b8c4ff;
      stroke-width: 2;
      stroke-linecap: round;
      stroke-dasharray: none;
      stroke-opacity: 1;
    }
    .line {
      fill: none;
    }
    .line-join {
      fill: none;
      stroke-linejoin: round;
    }
    .filled {
      fill: #b8c4ff;
      fill-opacity: 1;
    }
    .ear {
      display: inline;
      fill: none;
      stroke-linejoin: round;
    }
  </style>
  <g transform="translate(-8.072492,-9.4651044)">
    <path class="line stroke" d="m 72.791631,74.693851 c -0.431896,5.04021 7.021119,4.336653 6.974809,0" />
    <path class="line stroke" d="M 9.2574721,73.045261 C 13.288289,70.436659 17.062412,68.087814 20.417165,66.831339" />
    <path class="line stroke" d="m 11.413322,82.683176 c 2.772585,-3.062889 5.766726,-5.263008 8.877028,-6.974807" />
    <path class="line stroke" d="m 129.85824,63.914601 c 2.84962,0.146666 5.56168,2.222394 7.73569,4.05807" />
    <path class="line stroke" d="m 131.38002,72.030743 c 1.97062,0.906914 3.64743,2.738572 4.94577,5.326215" />
    <path class="line stroke" d="M 32.281749,99.894079 C 21.558942,101.39816 -5.3694586,75.583106 18.83102,51.561128 c 0.243545,-3.866694 -6.227978,-62.402676 34.792552,-23.762956 4.668109,-1.871659 10.012292,-3.037016 15.360218,-3.03392 13.886785,-11.538338 10.905775,-1.21569 9.909154,0.496727 3.666731,0.510943 7.106677,1.37477 10.06121,2.537193 37.316726,-48.677612 34.971896,20.624451 34.971896,20.624451 24.73173,13.73911 12.65245,42.185004 -6.99438,49.319338" />
    <path class="line stroke" d="m 27.138344,99.54953 c -8.643584,32.9389 7.177546,34.48347 22.319384,37.02989" />
    <path class="line stroke" d="m 64.42186,137.59394 c 7.079001,0.47898 13.549214,0.19698 19.275833,-1.01452" />
    <path class="line stroke" d="M 99.295899,135.18446 C 115.56041,134.39982 129.11722,126.89187 125.54654,112.231 121.97586,97.570132 123.06018,101.16663 122.6298,94.984201" />
    <path class="line stroke" d="m 47.555507,123.77113 c -0.576058,24.92895 20.190748,23.72027 17.627242,3.55081" />
    <path class="line stroke" d="m 83.697693,125.80017 c -2.324936,20.21984 17.289067,21.11657 16.23228,-1.52178" />
    <ellipse class="filled stroke" cx="57.320236" cy="59.095646" rx="5.0725875" ry="5.7066612" />
    <ellipse class="filled stroke" cx="91.795074" cy="58.29578" rx="5.0725875" ry="5.7066612" />
    <path class="ear stroke" d="M 31.323227,41.468402 C 29.64392,28.260153 33.340717,25.636109 42.48292,33.732708 38.597064,35.979357 34.870934,38.545455 31.323227,41.468402 Z" />
    <path class="ear stroke" d="m 100.31042,33.986337 c 9.35582,-13.837644 10.06261,-7.156808 11.92058,6.721176 -3.61976,-3.124803 -7.62478,-5.286476 -11.92058,-6.721176 z" />
    <ellipse class="line-join stroke" cx="75.327927" cy="101.0079" rx="3.2971818" ry="2.2192569" />
    <path class="line-join stroke" d="m 72.411187,99.676343 c -1.543539,-1.174898 -2.687525,-2.509618 -5.833475,-3.043552 -1.19821,2.242258 -0.780984,4.946069 0.380442,7.862509 1.404117,-0.51641 2.578773,-0.80336 4.945774,-2.28266" />
    <path class="line-join stroke" d="m 78.371477,99.549528 c 2.446939,-2.399856 3.717969,-2.447896 5.199401,-2.916737 1.454689,2.556903 1.285067,4.881759 0.380444,7.101619 -1.90222,-0.45056 -3.423996,-0.60723 -5.326216,-2.02904" />
  </g>
</svg>