<svg
  width="100mm"
  height="100mm"
  viewBox="0 0 130.7191 134.00444"
  xmlns="http://www.w3.org/2000/svg"
>
  <style>
    .stroke {
      stroke: #cbbeff;
      stroke-width: 2;
      stroke-linecap: round;
      stroke-dasharray: none;
      stroke-opacity: 1;
    }
    .line {
      fill: none;
    }
    .line-join {
      fill: none;
      stroke-linejoin: round;
    }
    .filled {
      fill: #cbbeff;
      fill-opacity: 1;
    }
    .ear {
      display: inline;
      fill: none;
      stroke-linejoin: round;
    }
  </style>
  <g transform="translate(-8.072492,-9.4651044)">
    <path class="line stroke" d="M 9.2574721,73.045261 C 13.288289,70.436659 17.062412,68.087814 20.417165,66.831339" />
    <path class="line stroke" d="m 11.413322,82.683176 c 2.772585,-3.062889 5.766726,-5.263008 8.877028,-6.974807" />
    <path class="line stroke" d="m 129.85824,63.914601 c 2.84962,0.146666 5.56168,2.222394 7.73569,4.05807" />
    <path class="line stroke" d="m 131.38002,72.030743 c 1.97062,0.906914 3.64743,2.738572 4.94577,5.326215" />
    <path class="line stroke" d="M 32.281749,99.894079 C 21.558942,101.39816 -5.3694586,75.583106 18.83102,51.561128 c 0.243545,-3.866694 -6.227978,-62.402676 34.792552,-23.762956 4.668109,-1.871659 10.012292,-3.037016 15.360218,-3.03392 13.886785,-11.538338 10.905775,-1.21569 9.909154,0.496727 3.666731,0.510943 7.106677,1.37477 10.06121,2.537193 37.316726,-48.677612 34.971896,20.624451 34.971896,20.624451 24.73173,13.73911 12.65245,42.185004 -6.99438,49.319338" />
    <path class="ear stroke" d="M 31.323227,41.468402 C 29.64392,28.260153 33.340717,25.636109 42.48292,33.732708 38.597064,35.979357 34.870934,38.545455 31.323227,41.468402 Z" />
    <path class="ear stroke" d="m 100.31042,33.986337 c 9.35582,-13.837644 10.06261,-7.156808 11.92058,6.721176 -3.61976,-3.124803 -7.62478,-5.286476 -11.92058,-6.721176 z" />
    <ellipse class="line-join stroke" cx="75.327927" cy="101.0079" rx="3.2971818" ry="2.2192569" />
    <path class="line-join stroke" d="m 72.411187,99.676343 c -1.543539,-1.174898 -2.687525,-2.509618 -5.833475,-3.043552 -1.19821,2.242258 -0.780984,4.946069 0.380442,7.862509 1.404117,-0.51641 2.578773,-0.80336 4.945774,-2.28266" />
    <path class="line-join stroke" d="m 78.371477,99.549528 c 2.446939,-2.399856 3.717969,-2.447896 5.199401,-2.916737 1.454689,2.556903 1.285067,4.881759 0.380444,7.101619 -1.90222,-0.45056 -3.423996,-0.60723 -5.326216,-2.02904" />
    <path class="line-join stroke" d="m 24.965831,98.32891 c 0,0 -8.315498,16.38312 -10.140288,25.51428 -1.072357,5.36602 -5.4406764,19.43271 24.969094,18.42697 25.550678,-0.84504 57.7937,-0.22691 71.745263,-1e-5 17.35329,0.28224 18.09694,-5.67644 17.44565,-15.59205 -0.7663,-11.66641 -7.63247,-30.311826 -7.63247,-30.311826" />
    <path class="line-join stroke" d="m 45.596434,109.23204 c -4.538379,12.39673 10.083426,16.36022 14.186334,3.08398" />
    <path class="line-join stroke" d="m 88.926426,111.54502 c 8.68719,15.54579 19.141994,5.613 13.723734,-4.00918" />
    <path class="line-join stroke" d="m 46.367431,118.48398 c 0.477652,-0.99882 0.715013,-2.07969 1.967978,-3.50142" />
    <path class="line-join stroke" d="m 50.99341,120.33437 c 0.530268,-1.23086 1.07911,-1.96884 1.272144,-3.46948" />
    <path class="line-join stroke" d="m 97.560786,119.40918 c -0.405492,-1.42424 -0.683971,-2.68731 -0.924393,-4.47178" />
    <path class="line-join stroke" d="m 100.18297,113.70381 c 0.83189,1.06515 1.61465,2.204 2.15879,3.70078" />
    <path class="line-join stroke" d="m 51.456007,54.953888 10.485548,7.555764 -10.022952,8.943556" />
    <path class="line-join stroke" d="m 94.015003,55.416483 -10.948148,7.555764 9.560355,8.94356" />
  </g>
</svg>
