<svg
  width="95.969223mm"
  height="46.163738mm"
  viewBox="0 0 95.969223 46.163738"
  xmlns="http://www.w3.org/2000/svg"
>
  <style>
    .stroke {
      fill: none;
      stroke: #a1cafd;
      stroke-width: 1.2;
      stroke-linecap: round;
      stroke-linejoin: round;
      stroke-dasharray: none;
      stroke-opacity: 1;
    }
  </style>
  <g transform="translate(-3.7630278,-54.2588)">
    <path class="stroke" d="m 38.171875,78.878736 c -1.210181,2.687479 -2.030022,5.694326 -1.394963,9.891546 -9.647141,-0.980732 -14.303003,1.867891 -17.403721,5.755012" />
    <path class="stroke" d="m 51.683244,97.843135 c 9.826672,-1.648958 8.889438,-5.160919 5.384019,-10.975075 -3.505419,-5.814156 -1.1531,-16.285998 7.735697,-18.324722 3.922422,-0.899642 9.872781,2.229114 11.66695,9.764731 1.552682,-0.807946 3.161054,-1.281759 4.882366,-1.077925 1.00773,-7.774829 5.725283,-9.590326 7.672288,-9.06725 7.041155,1.891654 8.964274,10.562347 8.11614,13.632579 0.52272,2.533324 0.285257,14.944893 -17.025393,18.027064 -7.494257,-0.0503 -22.541893,0.169476 -28.432067,-1.979402 z" />
    <path class="stroke" d="m 93.463078,79.195773 c -2.219257,-1.066238 -4.438514,-1.66017 -6.657771,-1.712" />
    <path class="stroke" d="M 68.987843,78.244662 C 66.69086,78.49795 64.606446,79.07009 62.647108,79.829844" />
    <ellipse class="stroke" cx="-80.242645" cy="81.732063" rx="5.5645356" ry="4.5817218" transform="scale(-1,1)" />
    <path class="stroke" d="m 85.753317,81.471074 c -0.730032,4.088625 -5.793463,2.224313 -10.931997,0.451214" />
    <path class="stroke" d="M 51.675749,97.845644 C 36.72968,101.36474 26.073844,100.09221 19.377188,94.524996" />
    <path class="stroke" d="M 80.148413,99.822389 C 112.97027,97.175291 100.84016,48.537286 62.092489,56.444736 26.273581,51.141449 16.76778,60.422789 11.799226,65.509477 2.3748751,62.499183 2.9605641,67.888492 7.7643481,70.51811 3.2701841,76.345897 1.1278651,101.13209 30.815529,99.397768" />
  </g>
</svg>
