<svg
   width="100mm"
   height="100mm"
   viewBox="0 0 100 100"
   version="1.1"
   xmlns:xlink="http://www.w3.org/1999/xlink"
   xmlns="http://www.w3.org/2000/svg"
   xmlns:svg="http://www.w3.org/2000/svg">
    <g transform="translate(-7.1503347,-6.4349856)">
      <path
        style="fill:none;stroke:{{colors.primary.dark.hex}};stroke-width:0.5;stroke-dasharray:none;stroke-opacity:1"
        d="m 7.9893252,102.33945 c 0,0 19.2207708,-35.003357 33.3378308,-63.374852 1.162263,-2.066248 4.947689,2.601026 11.956677,4.674084 C 50.030098,39.781699 42.867753,34.948247 44.374189,32.236511 49.029646,21.332968 53.716899,12.478125 55.354611,7.4820665 59.554654,19.76364 79.425793,58.020522 91.7241,81.451336 c -0.906371,-0.289598 -5.834286,-3.084389 -9.819306,-3.732531 6.091464,4.099901 12.872781,9.504777 12.872781,9.504777 l 8.069135,15.115868 c 0,0 -27.812455,-15.368699 -37.156702,-15.598205 C 66.541242,74.326637 63.770811,62.937785 55.291203,62.900086 45.431351,62.856251 43.959713,80.559055 45.33625,86.61443 34.442634,87.891326 7.9893252,102.33945 7.9893252,102.33945 Z"
      />
    </g>
</svg>
